<svg xmlns="http://www.w3.org/2000/svg" viewBox="0 0 512 512" width="32" height="32">
    <path d="M256 0C114.614 0 0 114.614 0 256s114.614 256 256 256 256-114.614 256-256S397.386 0 256 0zm149.566 268.879l-.114 55.374L339 257.805l66.566-66.57v77.644zm-97.128-11.074l-30.633 30.594c-5.805 5.84-13.586 9.047-21.805 9.047-8.254 0-16-3.207-21.84-9.047L106.722 160.961c1.477-8.469 8.867-14.882 17.73-14.882h263.094c8.867 0 16.254 6.414 17.73 14.882l-96.838 96.844zm-202 66.402V191.274L173 257.805l-38.875 38.875-27.687 27.527zm1.008 29.711l80.836-80.835 30.598 30.598c9.91 9.91 23.102 15.39 37.121 15.39 14.019 0 27.176-5.481 37.121-15.39l30.598-30.598 80.836 80.835c-2.484 6.993-9.152 12.004-17.007 12.004H124.453c-7.855 0-14.523-5.012-17.007-12.004z" fill="#fff"/>
</svg>